<svg width="32" height="32" viewBox="0 0 32 32" fill="none" xmlns="http://www.w3.org/2000/svg">
<path d="M24.7027 8.33333C25.2951 8.33332 25.793 8.3333 26.199 8.36274C26.6203 8.39329 27.0295 8.45977 27.4194 8.63985C27.861 8.8438 28.2555 9.14978 28.543 9.54813C28.8146 9.92452 28.9161 10.33 28.9602 10.7195C29.0002 11.0721 29.0001 11.4949 29.0001 11.952V12.048C29.0001 12.5051 29.0002 12.9279 28.9602 13.2805C28.9161 13.67 28.8146 14.0755 28.543 14.4519C28.2555 14.8503 27.861 15.1561 27.4194 15.3601C27.0295 15.5403 26.6203 15.6067 26.199 15.6372C25.793 15.6667 25.2951 15.6667 24.7026 15.6667H7.2975C6.705 15.6667 6.20713 15.6667 5.80116 15.6372C5.37978 15.6067 4.97064 15.5403 4.58076 15.3601C4.13918 15.1561 3.74461 14.8503 3.45713 14.4519C3.18549 14.0755 3.08405 13.67 3.03992 13.2805C2.99997 12.9279 3.00002 12.5051 3.00006 12.048V11.952C3.00002 11.4949 2.99997 11.0721 3.03992 10.7195C3.08405 10.33 3.18549 9.92452 3.45713 9.54813C3.74461 9.14978 4.13918 8.8438 4.58076 8.63985C4.97064 8.45977 5.37978 8.39329 5.80116 8.36274C6.20712 8.3333 6.70498 8.33332 7.29748 8.33333H24.7027Z" fill="currentColor"/>
<path d="M5.04908 17.2243C4.69792 17.1652 4.52233 17.1356 4.42785 17.2155C4.33337 17.2953 4.33337 17.4591 4.33337 17.7867V20.0725C4.33335 22.2093 4.33333 23.9147 4.51315 25.252C4.69891 26.6337 5.09292 27.7716 5.99311 28.6719C6.89329 29.572 8.03117 29.966 9.41285 30.1517C10.7503 30.3316 12.4556 30.3316 14.5924 30.3316C14.6334 30.3316 14.6667 30.2983 14.6667 30.2572V17.8649C14.6667 17.6135 14.6667 17.4877 14.5886 17.4096C14.5104 17.3316 14.3848 17.3316 14.1334 17.3316H7.25219C6.69664 17.3316 6.14744 17.3316 5.68059 17.2977C5.48676 17.2837 5.27415 17.2623 5.04908 17.2243Z" fill="currentColor"/>
<path d="M17.8667 17.3316C17.6152 17.3316 17.4896 17.3316 17.4115 17.4096C17.3334 17.4877 17.3334 17.6135 17.3334 17.8649V30.2572C17.3334 30.2983 17.3667 30.3316 17.4076 30.3316C19.5444 30.3316 21.2498 30.3316 22.5872 30.1517C23.969 29.966 25.1068 29.572 26.007 28.6719C26.9071 27.7716 27.3011 26.6337 27.487 25.252C27.6667 23.9147 27.6667 22.2093 27.6667 20.0725V17.7867C27.6667 17.4591 27.6667 17.2953 27.5722 17.2155C27.4778 17.1356 27.3022 17.1651 26.951 17.2243C26.7259 17.2623 26.5132 17.2837 26.3195 17.2977C25.8526 17.3316 25.3035 17.3316 24.7479 17.3316H17.8667Z" fill="currentColor"/>
<path fill-rule="evenodd" clip-rule="evenodd" d="M10.381 1.66675C8.32969 1.66675 6.66675 3.32969 6.66675 5.38104C6.66675 8.48435 9.18248 11.0001 12.2858 11.0001H16.0001H19.7143C22.8177 11.0001 25.3334 8.48435 25.3334 5.38104C25.3334 3.32969 23.6705 1.66675 21.6191 1.66675H21.1429C19.047 1.66675 17.1837 2.66235 16.0001 4.2064C14.8165 2.66235 12.9531 1.66675 10.8572 1.66675H10.381ZM14.6667 8.14293C14.6667 6.039 12.9612 4.33341 10.8572 4.33341H10.381C9.80245 4.33341 9.33341 4.80245 9.33341 5.38104C9.33341 7.01159 10.6552 8.33341 12.2858 8.33341H14.6667V8.14293ZM17.3334 8.33341H19.7143C21.3449 8.33341 22.6667 7.01159 22.6667 5.38104C22.6667 4.80245 22.1977 4.33341 21.6191 4.33341H21.1429C19.039 4.33341 17.3334 6.039 17.3334 8.14293V8.33341Z" fill="currentColor"/>
</svg>
