<svg width="200" height="25" viewBox="0 0 200 25" fill="none" xmlns="http://www.w3.org/2000/svg">
<path d="M5.75 0H1.25C0.835786 0 0.5 0.335787 0.5 0.75V17.25C0.5 17.6642 0.835786 18 1.25 18H5.75C6.16421 18 6.5 17.6642 6.5 17.25V0.75C6.5 0.335786 6.16421 0 5.75 0Z" fill="white"/>
<path d="M13.75 0H9.25C8.83579 0 8.5 0.335786 8.5 0.75V23.25C8.5 23.6642 8.83579 24 9.25 24H13.75C14.1642 24 14.5 23.6642 14.5 23.25V0.75C14.5 0.335786 14.1642 0 13.75 0Z" fill="white"/>
<path d="M34.512 24.2V17.258H34.096C33.9053 17.6047 33.628 17.9427 33.264 18.272C32.9 18.584 32.432 18.844 31.86 19.052C31.3053 19.26 30.612 19.364 29.78 19.364C28.7053 19.364 27.7173 19.104 26.816 18.584C25.9147 18.064 25.1953 17.3187 24.658 16.348C24.1207 15.36 23.852 14.1727 23.852 12.786V12.396C23.852 11.0093 24.1207 9.83067 24.658 8.86C25.2127 7.872 25.9407 7.118 26.842 6.598C27.7433 6.078 28.7227 5.818 29.78 5.818C31.028 5.818 31.9813 6.04333 32.64 6.494C33.316 6.94467 33.8187 7.456 34.148 8.028H34.564V6.182H37.19V24.2H34.512ZM30.534 17.024C31.7127 17.024 32.6747 16.6513 33.42 15.906C34.1653 15.1607 34.538 14.0947 34.538 12.708V12.474C34.538 11.1047 34.1567 10.0473 33.394 9.302C32.6487 8.55667 31.6953 8.184 30.534 8.184C29.39 8.184 28.4367 8.55667 27.674 9.302C26.9287 10.0473 26.556 11.1047 26.556 12.474V12.708C26.556 14.0947 26.9287 15.1607 27.674 15.906C28.4367 16.6513 29.39 17.024 30.534 17.024ZM44.2263 19.234C43.2556 19.234 42.3889 19.0173 41.6263 18.584C40.8636 18.1507 40.2656 17.5353 39.8323 16.738C39.3989 15.9407 39.1823 14.9873 39.1823 13.878V6.182H41.8603V13.696C41.8603 14.8053 42.1376 15.6287 42.6923 16.166C43.2469 16.686 44.0183 16.946 45.0063 16.946C46.0983 16.946 46.9736 16.582 47.6323 15.854C48.3083 15.1087 48.6463 14.0427 48.6463 12.656V6.182H51.3243V19H48.6983V17.076H48.2823C48.0396 17.596 47.6063 18.09 46.9823 18.558C46.3583 19.0087 45.4396 19.234 44.2263 19.234ZM60.873 19.364C59.625 19.364 58.663 19.1387 57.987 18.688C57.3283 18.2373 56.8343 17.7347 56.505 17.18H56.089V19H53.463V0.799999H56.141V7.924H56.557C56.765 7.57733 57.0423 7.248 57.389 6.936C57.7356 6.60667 58.195 6.338 58.767 6.13C59.339 5.922 60.041 5.818 60.873 5.818C61.9476 5.818 62.9356 6.078 63.837 6.598C64.7383 7.118 65.4576 7.872 65.995 8.86C66.5323 9.848 66.801 11.0267 66.801 12.396V12.786C66.801 14.1727 66.5236 15.36 65.969 16.348C65.4316 17.3187 64.7123 18.064 63.811 18.584C62.927 19.104 61.9476 19.364 60.873 19.364ZM60.093 17.024C61.2543 17.024 62.2076 16.6513 62.953 15.906C63.7156 15.1607 64.097 14.0947 64.097 12.708V12.474C64.097 11.1047 63.7243 10.0473 62.979 9.302C62.2336 8.55667 61.2716 8.184 60.093 8.184C58.949 8.184 57.9956 8.55667 57.233 9.302C56.4876 10.0473 56.115 11.1047 56.115 12.474V12.708C56.115 14.0947 56.4876 15.1607 57.233 15.906C57.9956 16.6513 58.949 17.024 60.093 17.024ZM68.2992 19V6.182H70.9772V19H68.2992ZM69.6512 4.44C69.1312 4.44 68.6892 4.27533 68.3252 3.946C67.9785 3.59933 67.8052 3.15733 67.8052 2.62C67.8052 2.08267 67.9785 1.64933 68.3252 1.32C68.6892 0.973332 69.1312 0.799999 69.6512 0.799999C70.1885 0.799999 70.6305 0.973332 70.9772 1.32C71.3239 1.64933 71.4972 2.08267 71.4972 2.62C71.4972 3.15733 71.3239 3.59933 70.9772 3.946C70.6305 4.27533 70.1885 4.44 69.6512 4.44ZM79.0855 19.364C77.8549 19.364 76.7369 19.104 75.7315 18.584C74.7435 18.064 73.9549 17.31 73.3655 16.322C72.7935 15.334 72.5075 14.1467 72.5075 12.76V12.422C72.5075 11.0353 72.7935 9.85667 73.3655 8.886C73.9549 7.898 74.7435 7.144 75.7315 6.624C76.7369 6.08667 77.8549 5.818 79.0855 5.818C80.3162 5.818 81.3649 6.04333 82.2315 6.494C83.0982 6.94467 83.7915 7.54267 84.3115 8.288C84.8489 9.03333 85.1955 9.85667 85.3515 10.758L82.7515 11.304C82.6649 10.732 82.4829 10.212 82.2055 9.744C81.9282 9.276 81.5382 8.90333 81.0355 8.626C80.5329 8.34867 79.9002 8.21 79.1375 8.21C78.3922 8.21 77.7162 8.38333 77.1095 8.73C76.5202 9.05933 76.0522 9.54467 75.7055 10.186C75.3589 10.81 75.1855 11.5727 75.1855 12.474V12.708C75.1855 13.6093 75.3589 14.3807 75.7055 15.022C76.0522 15.6633 76.5202 16.1487 77.1095 16.478C77.7162 16.8073 78.3922 16.972 79.1375 16.972C80.2642 16.972 81.1222 16.686 81.7115 16.114C82.3009 15.5247 82.6735 14.7793 82.8295 13.878L85.4295 14.476C85.2215 15.36 84.8489 16.1747 84.3115 16.92C83.7915 17.6653 83.0982 18.2633 82.2315 18.714C81.3649 19.1473 80.3162 19.364 79.0855 19.364Z" fill="white"/>
<path d="M194.111 19.364C192.533 19.364 191.199 19 190.107 18.272C189.032 17.544 188.382 16.3913 188.157 14.814L190.107 14.372C190.245 15.204 190.505 15.8627 190.887 16.348C191.268 16.816 191.736 17.154 192.291 17.362C192.863 17.5527 193.469 17.648 194.111 17.648C195.064 17.648 195.818 17.4573 196.373 17.076C196.927 16.6947 197.205 16.1833 197.205 15.542C197.205 14.8833 196.936 14.424 196.399 14.164C195.879 13.8867 195.159 13.6613 194.241 13.488L193.175 13.306C192.36 13.1673 191.615 12.9507 190.939 12.656C190.263 12.3613 189.725 11.9627 189.327 11.46C188.928 10.9573 188.729 10.3247 188.729 9.562C188.729 8.418 189.171 7.52533 190.055 6.884C190.939 6.24266 192.109 5.922 193.565 5.922C195.003 5.922 196.165 6.25133 197.049 6.91C197.95 7.55133 198.531 8.46133 198.791 9.64L196.867 10.134C196.711 9.21533 196.338 8.574 195.749 8.21C195.159 7.82866 194.431 7.638 193.565 7.638C192.698 7.638 192.013 7.80266 191.511 8.132C191.008 8.444 190.757 8.912 190.757 9.536C190.757 10.1427 190.991 10.5933 191.459 10.888C191.944 11.1653 192.585 11.3733 193.383 11.512L194.449 11.694C195.35 11.85 196.156 12.0667 196.867 12.344C197.595 12.604 198.167 12.9853 198.583 13.488C199.016 13.9907 199.233 14.6493 199.233 15.464C199.233 16.712 198.765 17.674 197.829 18.35C196.91 19.026 195.671 19.364 194.111 19.364Z" fill="#61F0FE"/>
<path d="M184.436 19V0.800049H186.49V19H184.436Z" fill="#61F0FE"/>
<path d="M175.201 19.364C174.317 19.364 173.511 19.208 172.783 18.896C172.055 18.584 171.483 18.1333 171.067 17.544C170.651 16.9547 170.443 16.2353 170.443 15.386C170.443 14.5193 170.651 13.8087 171.067 13.254C171.483 12.682 172.055 12.2573 172.783 11.98C173.511 11.6853 174.325 11.538 175.227 11.538H179.517V10.602C179.517 9.70066 179.248 8.99 178.711 8.47C178.191 7.95 177.411 7.69 176.371 7.69C175.348 7.69 174.551 7.94133 173.979 8.444C173.407 8.92933 173.017 9.588 172.809 10.42L170.884 9.796C171.092 9.08533 171.422 8.444 171.873 7.872C172.323 7.28266 172.921 6.81466 173.667 6.468C174.429 6.104 175.339 5.922 176.396 5.922C178.026 5.922 179.291 6.34666 180.193 7.196C181.094 8.028 181.545 9.20666 181.545 10.732V16.478C181.545 16.998 181.787 17.258 182.272 17.258H183.443V19H181.649C181.077 19 180.617 18.844 180.271 18.532C179.924 18.2027 179.751 17.7693 179.751 17.232V17.102H179.438C179.248 17.4313 178.988 17.778 178.659 18.142C178.347 18.4887 177.913 18.7747 177.359 19C176.804 19.2427 176.085 19.364 175.201 19.364ZM175.435 17.596C176.648 17.596 177.627 17.2407 178.373 16.53C179.135 15.802 179.517 14.788 179.517 13.488V13.202H175.305C174.49 13.202 173.814 13.384 173.277 13.748C172.757 14.0947 172.497 14.6233 172.497 15.334C172.497 16.0447 172.765 16.5993 173.303 16.998C173.857 17.3967 174.568 17.596 175.435 17.596Z" fill="#61F0FE"/>
<path d="M164.633 19.364C163.056 19.364 161.721 19 160.629 18.272C159.554 17.544 158.904 16.3913 158.679 14.814L160.629 14.372C160.768 15.204 161.028 15.8627 161.409 16.348C161.79 16.816 162.258 17.154 162.813 17.362C163.385 17.5527 163.992 17.648 164.633 17.648C165.586 17.648 166.34 17.4573 166.895 17.076C167.45 16.6947 167.727 16.1833 167.727 15.542C167.727 14.8833 167.458 14.424 166.921 14.164C166.401 13.8867 165.682 13.6613 164.763 13.488L163.697 13.306C162.882 13.1673 162.137 12.9507 161.461 12.656C160.785 12.3613 160.248 11.9627 159.849 11.46C159.45 10.9573 159.251 10.3247 159.251 9.562C159.251 8.418 159.693 7.52533 160.577 6.884C161.461 6.24266 162.631 5.922 164.087 5.922C165.526 5.922 166.687 6.25133 167.571 6.91C168.472 7.55133 169.053 8.46133 169.313 9.64L167.389 10.134C167.233 9.21533 166.86 8.574 166.271 8.21C165.682 7.82866 164.954 7.638 164.087 7.638C163.22 7.638 162.536 7.80266 162.033 8.132C161.53 8.444 161.279 8.912 161.279 9.536C161.279 10.1427 161.513 10.5933 161.981 10.888C162.466 11.1653 163.108 11.3733 163.905 11.512L164.971 11.694C165.872 11.85 166.678 12.0667 167.389 12.344C168.117 12.604 168.689 12.9853 169.105 13.488C169.538 13.9907 169.755 14.6493 169.755 15.464C169.755 16.712 169.287 17.674 168.351 18.35C167.432 19.026 166.193 19.364 164.633 19.364Z" fill="#61F0FE"/>
<path d="M151.135 19.364C149.852 19.364 148.717 19.0953 147.729 18.558C146.758 18.0207 145.996 17.2667 145.441 16.296C144.904 15.308 144.635 14.1467 144.635 12.812V12.474C144.635 11.1567 144.904 10.004 145.441 9.016C145.996 8.028 146.758 7.26533 147.729 6.728C148.717 6.19066 149.852 5.922 151.135 5.922C152.418 5.922 153.544 6.19066 154.515 6.728C155.503 7.26533 156.266 8.028 156.803 9.016C157.358 10.004 157.635 11.1567 157.635 12.474V12.812C157.635 14.1467 157.358 15.308 156.803 16.296C156.266 17.2667 155.503 18.0207 154.515 18.558C153.544 19.0953 152.418 19.364 151.135 19.364ZM151.135 17.518C152.487 17.518 153.562 17.0933 154.359 16.244C155.174 15.3773 155.581 14.216 155.581 12.76V12.526C155.581 11.07 155.174 9.91733 154.359 9.068C153.562 8.20133 152.487 7.768 151.135 7.768C149.8 7.768 148.726 8.20133 147.911 9.068C147.096 9.91733 146.689 11.07 146.689 12.526V12.76C146.689 14.216 147.096 15.3773 147.911 16.244C148.726 17.0933 149.8 17.518 151.135 17.518Z" fill="#61F0FE"/>
<path d="M130.346 24.2V6.286H132.348V8.392H132.712C133.042 7.75066 133.57 7.17866 134.298 6.676C135.044 6.17333 136.075 5.922 137.392 5.922C138.484 5.922 139.481 6.19066 140.382 6.728C141.301 7.248 142.029 7.99333 142.566 8.964C143.121 9.93466 143.398 11.1047 143.398 12.474V12.812C143.398 14.164 143.13 15.334 142.592 16.322C142.055 17.31 141.327 18.064 140.408 18.584C139.507 19.104 138.502 19.364 137.392 19.364C136.508 19.364 135.754 19.2427 135.13 19C134.524 18.7747 134.03 18.48 133.648 18.116C133.267 17.752 132.972 17.3793 132.764 16.998H132.4V24.2H130.346ZM136.846 17.544C138.164 17.544 139.23 17.128 140.044 16.296C140.876 15.4467 141.292 14.268 141.292 12.76V12.526C141.292 11.018 140.876 9.848 140.044 9.016C139.23 8.16666 138.164 7.742 136.846 7.742C135.546 7.742 134.472 8.16666 133.622 9.016C132.79 9.848 132.374 11.018 132.374 12.526V12.76C132.374 14.268 132.79 15.4467 133.622 16.296C134.472 17.128 135.546 17.544 136.846 17.544Z" fill="#61F0FE"/>
<path d="M121.97 19.364C120.688 19.364 119.552 19.0953 118.564 18.558C117.594 18.0207 116.831 17.2667 116.276 16.296C115.739 15.308 115.47 14.1467 115.47 12.812V12.474C115.47 11.1567 115.739 10.004 116.276 9.016C116.831 8.028 117.594 7.26533 118.564 6.728C119.552 6.19066 120.688 5.922 121.97 5.922C123.253 5.922 124.38 6.19066 125.35 6.728C126.338 7.26533 127.101 8.028 127.638 9.016C128.193 10.004 128.47 11.1567 128.47 12.474V12.812C128.47 14.1467 128.193 15.308 127.638 16.296C127.101 17.2667 126.338 18.0207 125.35 18.558C124.38 19.0953 123.253 19.364 121.97 19.364ZM121.97 17.518C123.322 17.518 124.397 17.0933 125.194 16.244C126.009 15.3773 126.416 14.216 126.416 12.76V12.526C126.416 11.07 126.009 9.91733 125.194 9.068C124.397 8.20133 123.322 7.768 121.97 7.768C120.636 7.768 119.561 8.20133 118.746 9.068C117.932 9.91733 117.524 11.07 117.524 12.526V12.76C117.524 14.216 117.932 15.3773 118.746 16.244C119.561 17.0933 120.636 17.518 121.97 17.518Z" fill="#61F0FE"/>
<path d="M108.57 19V6.28601H110.572V7.84601H110.936C111.162 7.29134 111.508 6.88401 111.976 6.62401C112.444 6.36401 113.06 6.23401 113.822 6.23401H115.33V8.10601H113.692C112.774 8.10601 112.028 8.36601 111.456 8.88601C110.902 9.38868 110.624 10.1773 110.624 11.252V19H108.57Z" fill="#61F0FE"/>
<path d="M93.658 24.2V6.286H95.66V8.392H96.024C96.3534 7.75066 96.882 7.17866 97.61 6.676C98.3554 6.17333 99.3867 5.922 100.704 5.922C101.796 5.922 102.793 6.19066 103.694 6.728C104.613 7.248 105.341 7.99333 105.878 8.964C106.433 9.93466 106.71 11.1047 106.71 12.474V12.812C106.71 14.164 106.441 15.334 105.904 16.322C105.367 17.31 104.639 18.064 103.72 18.584C102.819 19.104 101.813 19.364 100.704 19.364C99.82 19.364 99.066 19.2427 98.442 19C97.8354 18.7747 97.3414 18.48 96.96 18.116C96.5787 17.752 96.284 17.3793 96.076 16.998H95.712V24.2H93.658ZM100.158 17.544C101.475 17.544 102.541 17.128 103.356 16.296C104.188 15.4467 104.604 14.268 104.604 12.76V12.526C104.604 11.018 104.188 9.848 103.356 9.016C102.541 8.16666 101.475 7.742 100.158 7.742C98.858 7.742 97.7834 8.16666 96.934 9.016C96.102 9.848 95.686 11.018 95.686 12.526V12.76C95.686 14.268 96.102 15.4467 96.934 16.296C97.7834 17.128 98.858 17.544 100.158 17.544Z" fill="#61F0FE"/>
</svg>
